<svg xmlns="http://www.w3.org/2000/svg" width="15" height="15" viewBox="0 0 15 15"><defs><clipPath id="l2nua"><path d="M3.91 1.852l.751 3.273-.38.199c-.61.319-1.092.57-.84 1.127.833 2.37 2.745 4.282 5.087 5.104.596.24.83-.207 1.153-.824l.202-.386 3.272.751a1.844 1.844 0 0 1-1.827 2.074c-5.234 0-9.491-4.258-9.491-9.492 0-1.015.826-1.841 1.841-1.841zm10.677 9.476a3.22 3.22 0 0 0-.177-1.056.707.707 0 0 0-.51-.458l-4.225-.97a.715.715 0 0 0-.649.18c-.1.096-.103.099-.564.978a7.047 7.047 0 0 1-3.456-3.46c.879-.459.88-.461.977-.562a.707.707 0 0 0 .18-.648l-.97-4.225a.71.71 0 0 0-.459-.511 3.083 3.083 0 0 0-.513-.13 3.262 3.262 0 0 0-3.8 3.212C.419 9.693 5.312 14.587 11.327 14.587z"/></clipPath></defs><g><g><g/><g><path d="M3.91 1.852l.751 3.273-.38.199c-.61.319-1.092.57-.84 1.127.833 2.37 2.745 4.282 5.087 5.104.596.24.83-.207 1.153-.824l.202-.386 3.272.751a1.844 1.844 0 0 1-1.827 2.074c-5.234 0-9.491-4.258-9.491-9.492 0-1.015.826-1.841 1.841-1.841zm10.677 9.476a3.22 3.22 0 0 0-.177-1.056.707.707 0 0 0-.51-.458l-4.225-.97a.715.715 0 0 0-.649.18c-.1.096-.103.099-.564.978a7.047 7.047 0 0 1-3.456-3.46c.879-.459.88-.461.977-.562a.707.707 0 0 0 .18-.648l-.97-4.225a.71.71 0 0 0-.459-.511 3.083 3.083 0 0 0-.513-.13 3.262 3.262 0 0 0-3.8 3.212C.419 9.693 5.312 14.587 11.327 14.587z"/></g><g><path fill="#00ac4e" d="M3.91 1.852l.751 3.273-.38.199c-.61.319-1.092.57-.84 1.127.833 2.37 2.745 4.282 5.087 5.104.596.24.83-.207 1.153-.824l.202-.386 3.272.751a1.844 1.844 0 0 1-1.827 2.074c-5.234 0-9.491-4.258-9.491-9.492 0-1.015.826-1.841 1.841-1.841zm10.677 9.476a3.22 3.22 0 0 0-.177-1.056.707.707 0 0 0-.51-.458l-4.225-.97a.715.715 0 0 0-.649.18c-.1.096-.103.099-.564.978a7.047 7.047 0 0 1-3.456-3.46c.879-.459.88-.461.977-.562a.707.707 0 0 0 .18-.648l-.97-4.225a.71.71 0 0 0-.459-.511 3.083 3.083 0 0 0-.513-.13 3.262 3.262 0 0 0-3.8 3.212C.419 9.693 5.312 14.587 11.327 14.587z"/></g><g clip-path="url(#l2nua)"><g/><g><path fill="#00ac4e" d="M-1-1h17v17H-1z"/></g></g></g></g></svg>