<svg xmlns="http://www.w3.org/2000/svg" width="26" height="24" viewBox="0 0 26 24"><defs><clipPath id="q8tpa"><path d="M22.783 7.295H6.953l2.115 7.72h9.84zm2.31 1.15l-4.232 8.433c-.22.436-.666.712-1.156.712H8.08a1.292 1.292 0 0 1-1.246-.949L3.218 3.434H1.622A1.289 1.289 0 0 1 .33 2.147C.33 1.437.907.86 1.622.86h2.583c.583 0 1.093.389 1.246.948l.797 2.913h16.534c.901 0 1.723.455 2.197 1.22.474.764.518 1.7.114 2.504zM9.372 22.094c0 1.067-.868 1.93-1.938 1.93a1.934 1.934 0 0 1-1.937-1.93c0-1.067.868-1.93 1.937-1.93 1.07 0 1.938.863 1.938 1.93zm9.042 0c0-1.067.868-1.93 1.937-1.93 1.07 0 1.938.863 1.938 1.93s-.868 1.93-1.938 1.93a1.934 1.934 0 0 1-1.937-1.93z"/></clipPath></defs><g><g><g/><g><path d="M22.783 7.295H6.953l2.115 7.72h9.84zm2.31 1.15l-4.232 8.433c-.22.436-.666.712-1.156.712H8.08a1.292 1.292 0 0 1-1.246-.949L3.218 3.434H1.622A1.289 1.289 0 0 1 .33 2.147C.33 1.437.907.86 1.622.86h2.583c.583 0 1.093.389 1.246.948l.797 2.913h16.534c.901 0 1.723.455 2.197 1.22.474.764.518 1.7.114 2.504zM9.372 22.094c0 1.067-.868 1.93-1.938 1.93a1.934 1.934 0 0 1-1.937-1.93c0-1.067.868-1.93 1.937-1.93 1.07 0 1.938.863 1.938 1.93zm9.042 0c0-1.067.868-1.93 1.937-1.93 1.07 0 1.938.863 1.938 1.93s-.868 1.93-1.938 1.93a1.934 1.934 0 0 1-1.937-1.93z"/></g><g><path fill="#00ac4e" d="M22.783 7.295H6.953l2.115 7.72h9.84zm2.31 1.15l-4.232 8.433c-.22.436-.666.712-1.156.712H8.08a1.292 1.292 0 0 1-1.246-.949L3.218 3.434H1.622A1.289 1.289 0 0 1 .33 2.147C.33 1.437.907.86 1.622.86h2.583c.583 0 1.093.389 1.246.948l.797 2.913h16.534c.901 0 1.723.455 2.197 1.22.474.764.518 1.7.114 2.504zM9.372 22.094c0 1.067-.868 1.93-1.938 1.93a1.934 1.934 0 0 1-1.937-1.93c0-1.067.868-1.93 1.937-1.93 1.07 0 1.938.863 1.938 1.93zm9.042 0c0-1.067.868-1.93 1.937-1.93 1.07 0 1.938.863 1.938 1.93s-.868 1.93-1.938 1.93a1.934 1.934 0 0 1-1.937-1.93z"/></g><g clip-path="url(#q8tpa)"><g/><g><path fill="#00ac4e" d="M-2.25-3h31v30.886h-31z"/></g></g></g></g></svg>