<svg xmlns="http://www.w3.org/2000/svg" style="margin:auto;animation-play-state:running;animation-delay:0s" width="211" height="71" preserveAspectRatio="xMidYMid" display="block"><style/><g style="transform-origin:105.5px 35.5px;animation-play-state:running;animation-delay:0s"><g style="animation-play-state:running;animation-delay:0s"><g style="transform-origin:-83.53px -4.678px;animation:.775194s linear 0s 1 normal forwards running float-btt-in-50e0a470-57dc-4217-a6fc-fa81d92f8e03"><path d="M3.305 62.075V19.11h5.04l22.556 34.082h.124q-.124-1.827-.186-3.904-.133-1.766-.16-4.064-.035-2.298-.035-4.694V19.11h5.04v42.965h-5.04L8.088 27.868h-.124q.062 1.89.195 3.967.062 1.827.124 4.09.062 2.272.062 4.667v21.483h-5.04" fill="#099" stroke-width="none" style="animation-play-state:running;animation-delay:0s" opacity=".05"/></g><g style="transform-origin:-42.85px 1.782px;animation:.775194s linear .0730897s 1 normal forwards running float-btt-in-50e0a470-57dc-4217-a6fc-fa81d92f8e03"><path d="M63.031 54.7v-7.178q-1.26.063-2.396.125-1.135.062-2.236.16-1.109.088-1.987.221-4.535.568-6.425 1.979-1.89 1.42-1.89 4.064 0 2.21 1.358 3.31 1.349 1.1 3.558 1.1 3.017 0 5.386-1.038 2.36-1.038 4.632-2.742zm.568 7.88l-.639-3.47q-2.955 1.705-5.51 2.743-2.547 1.038-5.51 1.038-4.224 0-6.709-2.041-2.493-2.05-2.493-6.78 0-2.457 1.26-4.285 1.26-1.819 3.31-3.052 2.05-1.225 4.632-1.917 2.582-.7 5.288-.887 1.136-.124 2.964-.222 1.828-.089 2.84-.15 0-2.21-.134-3.94-.124-1.73-.754-2.964-.63-1.225-1.855-1.855-1.233-.63-3.496-.63-1.828 0-3.531.222-1.704.213-3.026.47-1.57.31-2.893.692l-1.011-4.347q1.58-.382 3.407-.693 1.57-.319 3.647-.532 2.085-.222 4.472-.222 3.221 0 5.2.94 1.987.95 3.088 2.556 1.1 1.606 1.508 3.656.417 2.04.417 4.312v15.12q0 .879.027 1.855.035.976.124 1.925.098.941.222 1.953l-4.845.505" fill="#10b2b2" stroke-width="none" style="animation-play-state:running;animation-delay:0s" opacity=".05"/></g><g style="transform-origin:-8.90499px 1.782px;animation:.775194s linear .146179s 1 normal forwards running float-btt-in-50e0a470-57dc-4217-a6fc-fa81d92f8e03"><path d="M94.966 31.08l-.879 4.472q-2.644-.816-4.694-1.1-2.05-.284-3.744-.284-2.21 0-3.691 1.065-1.482 1.074-1.482 2.777.062 1.509 1.322 2.582 1.26 1.074 2.937 1.917 1.668.852 3.709 1.863 2.05 1.003 3.851 2.263 1.792 1.26 2.928 3.026 1.136 1.766 1.198 4.224-.062 2.644-1.171 4.374-1.1 1.74-2.83 2.777-1.731 1.039-3.754 1.447-2.014.408-3.78.408-2.263 0-4.694-.249-2.422-.248-5.19-1.073l.94-4.534q2.84.754 5.164 1.1 2.334.346 3.842.346 1.136 0 2.236-.249 1.11-.257 1.988-.727.887-.47 1.42-1.225.532-.754.532-1.703-.062-1.766-1.198-2.99-1.136-1.234-2.928-2.21-1.793-.976-3.842-1.952-2.05-.976-3.843-2.263-1.792-1.295-2.99-3.088-1.198-1.801-1.198-4.445 0-1.89.976-3.372t2.52-2.458q1.544-.976 3.399-1.508 1.863-.533 3.629-.533 1.819 0 4.09.284 2.272.284 5.227 1.038" fill="#28bdbd" stroke-width="none" style="animation-play-state:running;animation-delay:0s" opacity=".05"/></g><g style="transform-origin:18.605px -3.188px;animation:.775194s linear .219269s 1 normal forwards running float-btt-in-50e0a470-57dc-4217-a6fc-fa81d92f8e03"><path d="M105.552 21.568l5.04-.63v9.45h9.14v4.09h-9.14v16.824q0 2.077.097 3.461.089 1.393.408 2.21.311.816.879 1.162.568.346 1.455.346 2.387-.062 5.537-1.766l1.517 3.851q-2.076 1.384-3.877 1.855-1.793.47-3.558.47-4.162 0-5.83-2.36-1.668-2.36-1.668-7.844V34.479h-5.795v-4.09h5.795v-8.82" fill="#10b2b2" stroke-width="none" style="animation-play-state:running;animation-delay:0s" opacity=".05"/></g><g style="transform-origin:49.17px 10.267px;animation:.775194s linear .292359s 1 normal forwards running float-btt-in-50e0a470-57dc-4217-a6fc-fa81d92f8e03"><path d="M134.718 61.258l-12.662-30.87h5.36l5.918 14.295q.887 2.085 1.606 4.162.727 2.076 1.295 3.717.692 1.953 1.198 3.78h.062q.568-1.827 1.26-3.78.568-1.641 1.322-3.717.755-2.077 1.571-4.162l5.484-14.295h5.297l-14.996 37.8q-.887 2.325-2.298 4.029-1.42 1.703-2.742 2.84-1.58 1.321-3.274 2.262l-2.458-4.348q1.322-.63 2.458-1.57 1.003-.817 2.014-2.05 1.003-1.225 1.633-2.929l1.952-5.164" fill="#45d2d2" stroke-width="none" style="animation-play-state:running;animation-delay:0s" opacity=".05"/></g><g style="transform-origin:83.11px 1.782px;animation:.775194s linear .365449s 1 normal forwards running float-btt-in-50e0a470-57dc-4217-a6fc-fa81d92f8e03"><path d="M174.79 54.7v-7.178q-1.26.063-2.396.125t-2.236.16q-1.1.088-1.979.221-4.543.568-6.433 1.979-1.89 1.42-1.89 4.064 0 2.21 1.357 3.31 1.358 1.1 3.559 1.1 3.025 0 5.386-1.038 2.36-1.038 4.632-2.742zm.567 7.88l-.63-3.47q-2.963 1.705-5.51 2.743-2.555 1.038-5.519 1.038-4.215 0-6.708-2.041-2.485-2.05-2.485-6.78 0-2.457 1.26-4.285 1.26-1.819 3.31-3.052 2.04-1.225 4.623-1.917 2.591-.7 5.297-.887 1.136-.124 2.964-.222 1.819-.089 2.83-.15 0-2.21-.124-3.94t-.754-2.964q-.63-1.225-1.863-1.855-1.225-.63-3.496-.63-1.828 0-3.523.222-1.704.213-3.026.47-1.58.31-2.901.692l-1.003-4.347q1.57-.382 3.398-.693 1.571-.319 3.656-.532 2.077-.222 4.472-.222 3.212 0 5.2.94 1.979.95 3.079 2.556 1.11 1.606 1.517 3.656.409 2.04.409 4.312v15.12q0 .879.035 1.855.027.976.124 1.925.089.941.222 1.953l-4.854.505" fill="#41dcdc" stroke-width="none" style="animation-play-state:running;animation-delay:0s" opacity=".05"/></g><g style="transform-origin:109.98px 15.342px;animation:.775194s linear .438538s 1 normal forwards running float-btt-in-50e0a470-57dc-4217-a6fc-fa81d92f8e03"><path d="M187.39 58.357q0-1.509 1.073-2.618 1.065-1.1 2.644-1.1 1.642 0 2.769 1.1 1.136 1.11 1.136 2.618 0 1.58-1.136 2.644-1.127 1.074-2.769 1.074-1.579 0-2.644-1.074-1.073-1.065-1.073-2.644" fill="#4ee8e8" stroke-width="none" style="animation-play-state:running;animation-delay:0s" opacity=".05"/></g></g></g><style id="float-btt-in-50e0a470-57dc-4217-a6fc-fa81d92f8e03">@keyframes float-btt-in-50e0a470-57dc-4217-a6fc-fa81d92f8e03{0%{animation-timing-function:cubic-bezier(.2242,.7499,.3142,.8148);transform:translate(0,14.925px) rotate(0deg) scale(1,1) skewX(0deg) skewY(0deg);opacity:.05}}</style></svg>